<mxfile host="app.diagrams.net" modified="2024-03-20T21:52:44.384Z" agent="Mozilla/5.0 (Windows NT 10.0; Win64; x64) AppleWebKit/537.36 (KHTML, like Gecko) Chrome/122.0.0.0 Safari/537.36 Edg/122.0.0.0" etag="wMTBVZvfoFuRnUR-SNTD" version="24.0.7" type="github">
  <diagram name="Página-1" id="S7ssqObe3ib5vzpyv2SK">
    <mxGraphModel dx="1386" dy="793" grid="0" gridSize="10" guides="1" tooltips="1" connect="1" arrows="1" fold="1" page="1" pageScale="1" pageWidth="827" pageHeight="1169" background="#FFFFFF" math="0" shadow="0">
      <root>
        <mxCell id="0" />
        <mxCell id="1" parent="0" />
        <mxCell id="VbOIKQpx7K-sj4lAZ01Y-1" value="" style="whiteSpace=wrap;html=1;aspect=fixed;" vertex="1" parent="1">
          <mxGeometry x="71" y="116" width="680" height="680" as="geometry" />
        </mxCell>
        <mxCell id="VbOIKQpx7K-sj4lAZ01Y-33" value="&lt;p style=&quot;line-height: 120%; font-size: 16px;&quot;&gt;Header&lt;/p&gt;" style="rounded=0;whiteSpace=wrap;html=1;" vertex="1" parent="1">
          <mxGeometry x="70.63" y="116" width="680.37" height="151" as="geometry" />
        </mxCell>
        <mxCell id="VbOIKQpx7K-sj4lAZ01Y-34" value="Imagem" style="ellipse;whiteSpace=wrap;html=1;aspect=fixed;" vertex="1" parent="1">
          <mxGeometry x="124.63" y="130.5" width="122" height="122" as="geometry" />
        </mxCell>
        <mxCell id="VbOIKQpx7K-sj4lAZ01Y-35" value="&lt;font style=&quot;font-size: 16px;&quot;&gt;Site do Ratão&lt;/font&gt;" style="rounded=0;whiteSpace=wrap;html=1;" vertex="1" parent="1">
          <mxGeometry x="360.63" y="154.25" width="335" height="74.5" as="geometry" />
        </mxCell>
        <mxCell id="VbOIKQpx7K-sj4lAZ01Y-36" value="" style="rounded=0;whiteSpace=wrap;html=1;rotation=90;" vertex="1" parent="1">
          <mxGeometry x="-78" y="415.96" width="528" height="230.66" as="geometry" />
        </mxCell>
        <mxCell id="VbOIKQpx7K-sj4lAZ01Y-37" value="&lt;font style=&quot;font-size: 18px;&quot;&gt;Imagem&lt;/font&gt;" style="rounded=0;whiteSpace=wrap;html=1;" vertex="1" parent="1">
          <mxGeometry x="355.63" y="284" width="346" height="87" as="geometry" />
        </mxCell>
        <mxCell id="VbOIKQpx7K-sj4lAZ01Y-38" value="&lt;font style=&quot;font-size: 18px;&quot;&gt;Texto&lt;/font&gt;" style="whiteSpace=wrap;html=1;aspect=fixed;" vertex="1" parent="1">
          <mxGeometry x="370.13" y="387" width="316" height="316" as="geometry" />
        </mxCell>
        <mxCell id="VbOIKQpx7K-sj4lAZ01Y-39" value="&lt;font style=&quot;font-size: 15px;&quot;&gt;Home&lt;/font&gt;" style="rounded=0;whiteSpace=wrap;html=1;" vertex="1" parent="1">
          <mxGeometry x="71.63" y="314" width="230" height="60" as="geometry" />
        </mxCell>
        <mxCell id="VbOIKQpx7K-sj4lAZ01Y-40" value="&lt;font style=&quot;font-size: 15px;&quot;&gt;Serviços&lt;/font&gt;" style="rounded=0;whiteSpace=wrap;html=1;" vertex="1" parent="1">
          <mxGeometry x="70.63" y="410" width="230" height="60" as="geometry" />
        </mxCell>
        <mxCell id="VbOIKQpx7K-sj4lAZ01Y-41" value="&lt;font style=&quot;font-size: 15px;&quot;&gt;Contatos&lt;/font&gt;" style="rounded=0;whiteSpace=wrap;html=1;" vertex="1" parent="1">
          <mxGeometry x="70.63" y="501.29" width="231" height="60" as="geometry" />
        </mxCell>
        <mxCell id="VbOIKQpx7K-sj4lAZ01Y-42" value="&lt;font style=&quot;font-size: 15px;&quot;&gt;Redes Sociais&lt;/font&gt;" style="rounded=0;whiteSpace=wrap;html=1;" vertex="1" parent="1">
          <mxGeometry x="71.63" y="604" width="230" height="60" as="geometry" />
        </mxCell>
        <mxCell id="VbOIKQpx7K-sj4lAZ01Y-45" value="" style="rounded=0;whiteSpace=wrap;html=1;" vertex="1" parent="1">
          <mxGeometry x="70.63" y="719" width="680" height="83" as="geometry" />
        </mxCell>
        <mxCell id="VbOIKQpx7K-sj4lAZ01Y-48" value="Central de&lt;div&gt;Ajuda&lt;/div&gt;" style="rounded=0;whiteSpace=wrap;html=1;" vertex="1" parent="1">
          <mxGeometry x="119.63" y="730.5" width="150" height="58.5" as="geometry" />
        </mxCell>
        <mxCell id="VbOIKQpx7K-sj4lAZ01Y-50" value="Telefone" style="rounded=0;whiteSpace=wrap;html=1;" vertex="1" parent="1">
          <mxGeometry x="323.63" y="730.5" width="150" height="58.5" as="geometry" />
        </mxCell>
        <mxCell id="VbOIKQpx7K-sj4lAZ01Y-51" value="" style="rounded=0;whiteSpace=wrap;html=1;" vertex="1" parent="1">
          <mxGeometry x="531.13" y="731.25" width="150" height="58.5" as="geometry" />
        </mxCell>
        <mxCell id="VbOIKQpx7K-sj4lAZ01Y-52" value="&lt;font style=&quot;font-size: 21px;&quot;&gt;Wireframe&lt;/font&gt;" style="text;strokeColor=none;align=center;fillColor=none;html=1;verticalAlign=middle;whiteSpace=wrap;rounded=0;" vertex="1" parent="1">
          <mxGeometry x="360.63" y="51" width="60" height="30" as="geometry" />
        </mxCell>
      </root>
    </mxGraphModel>
  </diagram>
</mxfile>
